<svg width="18" height="18" viewBox="0 0 122.8 122.8" xmlns="http://www.w3.org/2000/svg">
  <path fill="#36C5F0" d="M27.5 77.1c0 7.6-6.2 13.8-13.8 13.8S0 84.7 0 77.1s6.2-13.8 13.8-13.8h13.7v13.8zm6.9 0c0-7.6 6.2-13.8 13.8-13.8s13.8 6.2 13.8 13.8v34.6c0 7.6-6.2 13.8-13.8 13.8s-13.8-6.2-13.8-13.8V77.1z"/>
  <path fill="#2EB67D" d="M45.1 27.5c-7.6 0-13.8-6.2-13.8-13.8S37.5 0 45.1 0s13.8 6.2 13.8 13.8v13.8H45.1zm0 6.9c7.6 0 13.8 6.2 13.8 13.8s-6.2 13.8-13.8 13.8H10.5C2.9 62 0 55.8 0 48.2s6.2-13.8 13.8-13.8h31.3z"/>
  <path fill="#ECB22E" d="M95.3 45.1c0-7.6 6.2-13.8 13.8-13.8s13.8 6.2 13.8 13.8-6.2 13.8-13.8 13.8H95.3V45.1zm-6.9 0c0 7.6-6.2 13.8-13.8 13.8S60.8 52.7 60.8 45.1V10.5C60.8 2.9 67 0 74.6 0s13.8 6.2 13.8 13.8v31.3z"/>
  <path fill="#E01E5A" d="M77.7 95.3c7.6 0 13.8 6.2 13.8 13.8s-6.2 13.8-13.8 13.8-13.8-6.2-13.8-13.8V95.3h13.8zm0-6.9c-7.6 0-13.8-6.2-13.8-13.8s6.2-13.8 13.8-13.8h34.6c7.6 0 13.8 6.2 13.8 13.8s-6.2 13.8-13.8 13.8H77.7z"/>
</svg>

